{"title":"Ultimate Avengers 2 (2006) DVDRip XviD AC3 Soup","uid":12153155,"size":1315325155,"categoryP":"video","categoryS":"movies","magnet":"?xt=urn:btih:371b43730ea87ea80fd2f700b1de8f40f395f739&amp;dn=Ultimate+Avengers+2+%282006%29+DVDRip+XviD+AC3+Soup&amp;tr=udp%3A%2F%2Ftracker.openbittorrent.com%3A80&amp;tr=udp%3A%2F%2Fopen.demonii.com%3A1337&amp;tr=udp%3A%2F%2Ftracker.coppersurfer.tk%3A6969&amp;tr=udp%3A%2F%2Fexodus.desync.com%3A6969","seeders":10,"leechers":3,"uploader":"peaSoup","files":5,"time":1437688222,"description":"Storyline\n\nThe mightiest of heroes the ultimate Avengers must continue their war against the same aliens they fought. This time, the aliens and Captain America's old enemy Herr Kleiser (the alien shape shifter who supposedly died in 1945), are invading a hidden city in Africa, where the Black Panther is king. But when Kleiser murders the Black Panther's father T'Chaka, Black Panther travels to the U.S.A. to get advice from Captain America. The Avengers must travel to Africa, where a bloody war will be waged against the invading aliens.                                                                   &lt;a href=&quot; http://i.imgur.com/S4akZGR.jpg&quot; rel=&quot;nofollow&quot; target=&quot;_NEW&quot;&gt; http://i.imgur.com/S4akZGR.jpg&lt;/a&gt;                                                                 &lt;a href=&quot; http://i.imgur.com/KROFpOv.jpg&quot; rel=&quot;nofollow&quot; target=&quot;_NEW&quot;&gt; http://i.imgur.com/KROFpOv.jpg&lt;/a&gt;                                                                  &lt;a href=&quot; http://i.imgur.com/laqyZoq.jpg&quot; rel=&quot;nofollow&quot; target=&quot;_NEW&quot;&gt; http://i.imgur.com/laqyZoq.jpg&lt;/a&gt;                                                                &lt;a href=&quot; http://i.imgur.com/B5nao91.jpg&quot; rel=&quot;nofollow&quot; target=&quot;_NEW&quot;&gt; http://i.imgur.com/B5nao91.jpg&lt;/a&gt;                                                                    \nFormat                      : AVI\nFormat/Info                 : Audio Video Interleave\nFormat profile              : OpenDML\nFile size                   : 1.22 GiB\nDuration                    : 1h 9mn\nOverall bit rate            : 2 505 Kbps\nMovie name                  : Ultimate Avengers 2 Rise of the Panther (2006) DVDRip XviD AC3 Soup\nWriting application         : Lavf56.9.100\nOriginal source form/Name   : ULTIMATE_AVENGERS_2\n\nVideo\nID                          : 0\nFormat                      : MPEG-4 Visual\nFormat profile              : Advanced Simple@L5\nFormat settings, BVOP       : 2\nFormat settings, QPel       : No\nFormat settings, GMC        : No warppoints\nFormat settings, Matrix     : Default (MPEG)\nMuxing mode                 : Packed bitstream\nCodec ID                    : XVID\nCodec ID/Hint               : XviD\nDuration                    : 1h 9mn\nBit rate                    : 2 044 Kbps\nWidth                       : 720 pixels\nHeight                      : 404 pixels\nDisplay aspect ratio        : 16:9\nFrame rate                  : 25.000 fps\nColor space                 : YUV\nChroma subsampling          : 4:2:0\nBit depth                   : 8 bits\nScan type                   : Progressive\nCompression mode            : Lossy\nBits/(Pixel*Frame)          : 0.281\nStream size                 : 1 021 MiB (82%)\nWriting library             : XviD 64\n\nAudio\nID                          : 1\nFormat                      : AC-3\nFormat/Info                 : Audio Coding 3\nMode extension              : CM (complete main)\nFormat settings, Endianness : Big\nCodec ID                    : 2000\nDuration                    : 1h 9mn\nBit rate mode               : Constant\nBit rate                    : 448 Kbps\nChannel(s)                  : 6 channels\nChannel positions           : Front: L C R, Side: L R, LFE\nSampling rate               : 48.0 KHz\nCompression mode            : Lossy\nStream size                 : 224 MiB (18%)\nAlignment                   : Aligned on interleaves\nInterleave, duration        : 32 ms (0.80 video frame)","torrent":{"xt":"urn:btih:371b43730ea87ea80fd2f700b1de8f40f395f739","amp;dn":"Ultimate+Avengers+2+%282006%29+DVDRip+XviD+AC3+Soup","amp;tr":["udp%3A%2F%2Ftracker.openbittorrent.com%3A80","udp%3A%2F%2Fopen.demonii.com%3A1337","udp%3A%2F%2Ftracker.coppersurfer.tk%3A6969","udp%3A%2F%2Fexodus.desync.com%3A6969"],"infoHash":"371b43730ea87ea80fd2f700b1de8f40f395f739","infoHashBuffer":{"type":"Buffer","data":[55,27,67,115,14,168,126,168,15,210,247,0,177,222,143,64,243,149,247,57]},"announce":[],"urlList":[]}}